<svg width="160" height="120" viewBox="0 0 160 120" xmlns="http://www.w3.org/2000/svg">
  <defs>
    <linearGradient id="a" x1="0" y1="0" x2="1" y2="1">
      <stop offset="0" stop-color="#141a4f" />
      <stop offset="1" stop-color="#251251" />
    </linearGradient>
    <linearGradient id="b" x1="0" y1="0" x2="1" y2="1">
      <stop offset="0" stop-color="#8ae0ff" />
      <stop offset="1" stop-color="#c287ff" />
    </linearGradient>
    <linearGradient id="c" x1="0" y1="0" x2="0" y2="1">
      <stop offset="0" stop-color="#1b2b74" stop-opacity=".85" />
      <stop offset="1" stop-color="#0a0d28" stop-opacity=".85" />
    </linearGradient>
    <linearGradient id="d" x1="0" y1="0" x2="1" y2="1">
      <stop offset="0" stop-color="#ffe2a8" />
      <stop offset="1" stop-color="#ff9b55" />
    </linearGradient>
    <linearGradient id="e" x1="0" y1="0" x2="1" y2="1">
      <stop offset="0" stop-color="#fff4ce" />
      <stop offset="1" stop-color="#ffbe66" />
    </linearGradient>
  </defs>
  <rect width="160" height="120" rx="20" fill="url(#a)" />
  <rect x="6" y="6" width="148" height="108" rx="16" fill="#0b102b" />
  <rect x="6" y="6" width="148" height="108" rx="16" fill="url(#c)" />
  <rect x="6" y="6" width="148" height="108" rx="16" fill="none" stroke="url(#b)" stroke-width="1.4" />
  <g transform="translate(40 26)" fill="#182055">
    <rect width="32" height="32" rx="7" fill="#1d2a67" />
    <rect x="36" width="32" height="32" rx="7" fill="#1a2760" />
    <rect y="36" width="32" height="32" rx="7" fill="#1a2661" />
    <rect x="36" y="36" width="32" height="32" rx="7" fill="url(#d)" />
    <rect x="19" y="-10" width="30" height="10" rx="4" fill="#222f7b" opacity=".65" />
    <rect x="55" y="26" width="22" height="8" rx="4" fill="#fff" opacity=".18" />
  </g>
  <g fill="#fff" font-family="'Space Grotesk', 'Poppins', sans-serif" font-weight="700" text-anchor="middle">
    <text x="92" y="65" font-size="24" fill="#ffe7b7">2048</text>
    <text x="92" y="83" font-size="10" fill="#f6b574">CHAIN COMBO</text>
    <text x="92" y="98" font-size="9" fill="#7bd4ff" letter-spacing=".3em">MERGE</text>
  </g>
  <rect x="80" y="44" width="48" height="32" rx="8" fill="url(#e)" transform="rotate(-6 80 44)" />
  <text x="103" y="66" font-family="'Space Grotesk', 'Poppins', sans-serif" font-size="20" font-weight="700" fill="#b34d00" transform="rotate(-6 103 66)">2048</text>
</svg>
