<svg width="160" height="120" viewBox="0 0 160 120" xmlns="http://www.w3.org/2000/svg">
  <defs>
    <linearGradient id="bg" x1="0" y1="0" x2="1" y2="1">
      <stop offset="0" stop-color="#201d52" />
      <stop offset="1" stop-color="#331e60" />
    </linearGradient>
    <linearGradient id="panel" x1="0" y1="0" x2="1" y2="1">
      <stop offset="0" stop-color="#0b1232" />
      <stop offset="1" stop-color="#0b0d24" />
    </linearGradient>
    <radialGradient id="halo" cx="0.5" cy="0.35" r="0.7">
      <stop offset="0" stop-color="#8bc6ff" stop-opacity="0.25" />
      <stop offset="1" stop-color="transparent" />
    </radialGradient>
    <linearGradient id="tile2" x1="0" y1="0" x2="1" y2="1">
      <stop offset="0" stop-color="#fff5d8" />
      <stop offset="1" stop-color="#ffe1a8" />
    </linearGradient>
    <linearGradient id="tile4" x1="0" y1="0" x2="1" y2="1">
      <stop offset="0" stop-color="#ffe7c0" />
      <stop offset="1" stop-color="#ffd099" />
    </linearGradient>
    <linearGradient id="tile8" x1="0" y1="0" x2="1" y2="1">
      <stop offset="0" stop-color="#ffbed4" />
      <stop offset="1" stop-color="#ff8cbc" />
    </linearGradient>
    <linearGradient id="tile16" x1="0" y1="0" x2="1" y2="1">
      <stop offset="0" stop-color="#9fd5ff" />
      <stop offset="1" stop-color="#6da8ff" />
    </linearGradient>
  </defs>
  <rect width="160" height="120" rx="24" fill="url(#bg)" />
  <rect x="8" y="8" width="144" height="104" rx="20" fill="url(#panel)" stroke="rgba(124, 206, 255, 0.25)" stroke-width="1.4" />
  <rect x="8" y="8" width="144" height="104" rx="20" fill="url(#halo)" />
  <g transform="translate(0.5 0.5)" opacity="0.18" stroke="rgba(148, 201, 255, 0.6)" stroke-linecap="round">
    <path d="M32 28h96" />
    <path d="M32 92h96" />
    <path d="M32 60h96" />
    <path d="M52 16v88" />
    <path d="M84 16v88" />
    <path d="M116 16v88" />
  </g>
  <g fill="#10162e" opacity="0.5">
    <path d="M46 30h68a6 6 0 0 1 6 6v48a6 6 0 0 1-6 6H46a6 6 0 0 1-6-6V36a6 6 0 0 1 6-6z" />
  </g>
  <g font-family="'Space Grotesk', 'Poppins', sans-serif" font-weight="600" text-anchor="middle" dominant-baseline="middle">
    <rect x="34" y="26" width="40" height="40" rx="12" fill="url(#tile2)" />
    <text x="54" y="46" fill="#46331a" font-size="18">2</text>
    <rect x="86" y="26" width="40" height="40" rx="12" fill="url(#tile4)" />
    <text x="106" y="46" fill="#4d3518" font-size="18">4</text>
    <rect x="34" y="78" width="40" height="40" rx="12" fill="url(#tile8)" />
    <text x="54" y="98" fill="#512638" font-size="18">8</text>
    <rect x="86" y="78" width="40" height="40" rx="12" fill="url(#tile16)" />
    <text x="106" y="98" fill="#163357" font-size="18">16</text>
  </g>
  <g stroke="rgba(124, 206, 255, 0.45)" stroke-width="2" stroke-linecap="round" opacity="0.6">
    <path d="M20 104c18-10 102-10 120 0" />
    <path d="M20 20c24 10 98 10 120 0" opacity="0.4" />
  </g>
</svg>
