<svg width="160" height="120" viewBox="0 0 160 120" xmlns="http://www.w3.org/2000/svg">
  <defs>
    <linearGradient id="a" x1="0" y1="0" x2="1" y2="1">
      <stop offset="0" stop-color="#151c55" />
      <stop offset="1" stop-color="#2d145a" />
    </linearGradient>
    <linearGradient id="b" x1="0" y1="0" x2="1" y2="1">
      <stop offset="0" stop-color="#88dcff" />
      <stop offset="1" stop-color="#c98cff" />
    </linearGradient>
    <linearGradient id="c" x1="0" y1="0" x2="0" y2="1">
      <stop offset="0" stop-color="#1a2b73" />
      <stop offset="1" stop-color="#080e28" />
    </linearGradient>
    <linearGradient id="d" x1="0" y1="0" x2="1" y2="1">
      <stop offset="0" stop-color="#7bffdf" />
      <stop offset="1" stop-color="#5f9fff" />
    </linearGradient>
    <linearGradient id="e" x1="0" y1="0" x2="1" y2="1">
      <stop offset="0" stop-color="#ffefb5" />
      <stop offset="1" stop-color="#ffa864" />
    </linearGradient>
    <linearGradient id="f" x1="0" y1="0" x2="1" y2="1">
      <stop offset="0" stop-color="#7d8eff" />
      <stop offset="1" stop-color="#66d2ff" />
    </linearGradient>
  </defs>
  <rect width="160" height="120" rx="20" fill="url(#a)" />
  <rect x="6" y="6" width="148" height="108" rx="16" fill="#080f28" />
  <rect x="6" y="6" width="148" height="108" rx="16" fill="url(#c)" />
  <rect x="6" y="6" width="148" height="108" rx="16" fill="none" stroke="url(#b)" stroke-width="1.4" />
  <g transform="translate(34 22)">
    <rect width="92" height="76" rx="12" fill="#0f163a" />
    <rect x="6" y="6" width="80" height="64" rx="10" fill="#19245d" />
    <g opacity=".45" stroke="#25338a" stroke-width="2">
      <path d="M6 22h80" />
      <path d="M6 38h80" />
      <path d="M6 54h80" />
      <path d="M22 6v64" />
      <path d="M38 6v64" />
      <path d="M54 6v64" />
      <path d="M70 6v64" />
    </g>
    <rect x="38" y="-12" width="24" height="24" rx="6" fill="url(#d)" transform="rotate(8 50 0)" />
    <rect x="22" y="16" width="16" height="16" rx="4" fill="url(#e)" />
    <rect x="38" y="16" width="16" height="16" rx="4" fill="#1d285f" opacity=".6" />
    <rect x="54" y="16" width="16" height="16" rx="4" fill="#1d285f" opacity=".6" />
    <rect x="70" y="16" width="16" height="16" rx="4" fill="#1d285f" opacity=".6" />
    <rect x="22" y="32" width="16" height="16" rx="4" fill="url(#f)" />
    <rect x="38" y="32" width="16" height="16" rx="4" fill="url(#d)" />
    <rect x="54" y="32" width="16" height="16" rx="4" fill="#1d285f" opacity=".6" />
    <rect x="70" y="32" width="16" height="16" rx="4" fill="#1d285f" opacity=".6" />
    <rect x="38" y="48" width="16" height="16" rx="4" fill="url(#e)" />
    <rect x="54" y="48" width="16" height="16" rx="4" fill="url(#f)" />
    <rect x="70" y="48" width="16" height="16" rx="4" fill="url(#d)" />
    <path d="M70 8l10-10" stroke="#ffb165" stroke-width="3" stroke-linecap="round" opacity=".7" />
  </g>
  <path d="M32 98c26-12 70-12 96 0" stroke="#7bd4ff" stroke-width="3" stroke-linecap="round" opacity=".55" />
  <circle cx="54" cy="94" r="6" fill="#ffb264" />
  <circle cx="106" cy="94" r="6" fill="#67d1ff" />
</svg>
