<svg width="160" height="120" viewBox="0 0 160 120" xmlns="http://www.w3.org/2000/svg">
  <defs>
    <linearGradient id="bg" x1="0" y1="0" x2="1" y2="1">
      <stop offset="0" stop-color="#101c3c" />
      <stop offset="1" stop-color="#2a1457" />
    </linearGradient>
    <linearGradient id="panel" x1="0" y1="0" x2="1" y2="1">
      <stop offset="0" stop-color="#0a132d" />
      <stop offset="1" stop-color="#0b0f24" />
    </linearGradient>
    <linearGradient id="brickA" x1="0" y1="0" x2="1" y2="1">
      <stop offset="0" stop-color="#ff9ad5" />
      <stop offset="1" stop-color="#ff7a6f" />
    </linearGradient>
    <linearGradient id="brickB" x1="0" y1="0" x2="1" y2="1">
      <stop offset="0" stop-color="#7be0ff" />
      <stop offset="1" stop-color="#3a9dff" />
    </linearGradient>
    <linearGradient id="paddle" x1="0" y1="0" x2="1" y2="0">
      <stop offset="0" stop-color="#7be0ff" />
      <stop offset="1" stop-color="#7b5bff" />
    </linearGradient>
  </defs>
  <rect width="160" height="120" rx="24" fill="url(#bg)" />
  <rect x="8" y="8" width="144" height="104" rx="20" fill="url(#panel)" stroke="rgba(132, 197, 255, 0.22)" stroke-width="1.4" />
  <g transform="translate(20 18)">
    <rect x="0" y="0" width="120" height="28" rx="10" fill="rgba(12, 18, 40, 0.95)" stroke="rgba(123, 209, 255, 0.24)" stroke-width="1.4" />
    <rect x="10" y="6" width="24" height="16" rx="5" fill="url(#brickA)" />
    <rect x="44" y="6" width="24" height="16" rx="5" fill="url(#brickB)" />
    <rect x="78" y="6" width="24" height="16" rx="5" fill="url(#brickA)" opacity="0.85" />
    <rect x="24" y="14" width="24" height="16" rx="5" fill="url(#brickB)" opacity="0.6" />
    <rect x="58" y="14" width="24" height="16" rx="5" fill="url(#brickA)" opacity="0.6" />
    <rect x="92" y="14" width="16" height="16" rx="5" fill="url(#brickB)" opacity="0.4" />
  </g>
  <circle cx="92" cy="62" r="8" fill="#fff6d6" stroke="rgba(255, 221, 128, 0.6)" stroke-width="2" />
  <g stroke="rgba(123, 209, 255, 0.35)" stroke-linecap="round" stroke-width="2" opacity="0.6">
    <path d="M40 64c24-10 52-10 76 0" />
  </g>
  <rect x="48" y="88" width="64" height="12" rx="6" fill="rgba(10, 16, 36, 0.8)" stroke="rgba(123, 209, 255, 0.25)" stroke-width="1.2" />
  <rect x="56" y="90" width="48" height="8" rx="4" fill="url(#paddle)" />
  <g stroke="rgba(123, 209, 255, 0.45)" stroke-width="2" stroke-linecap="round" opacity="0.7">
    <path d="M24 108c30-6 86-6 112 0" />
  </g>
</svg>
