<svg width="160" height="120" viewBox="0 0 160 120" xmlns="http://www.w3.org/2000/svg">
  <defs>
    <linearGradient id="bg" x1="0" y1="0" x2="1" y2="1">
      <stop offset="0" stop-color="#0f183a" />
      <stop offset="1" stop-color="#241c52" />
    </linearGradient>
    <linearGradient id="frame" x1="0" y1="0" x2="0" y2="1">
      <stop offset="0" stop-color="#1b2758" />
      <stop offset="1" stop-color="#111633" />
    </linearGradient>
    <linearGradient id="discA" x1="0" y1="0" x2="1" y2="1">
      <stop offset="0" stop-color="#7be0ff" />
      <stop offset="1" stop-color="#3a9dff" />
    </linearGradient>
    <linearGradient id="discB" x1="0" y1="0" x2="1" y2="1">
      <stop offset="0" stop-color="#ffc86f" />
      <stop offset="1" stop-color="#ff7a6f" />
    </linearGradient>
  </defs>
  <rect width="160" height="120" rx="24" fill="url(#bg)" />
  <rect x="8" y="8" width="144" height="104" rx="20" fill="url(#frame)" stroke="rgba(128, 189, 255, 0.22)" stroke-width="1.4" />
  <g opacity="0.4" stroke="rgba(123, 209, 255, 0.3)" stroke-width="1" stroke-linecap="round">
    <path d="M28 32h104" />
    <path d="M28 56h104" />
    <path d="M28 80h104" />
    <path d="M28 104h104" />
  </g>
  <g transform="translate(20 24)">
    <rect x="0" y="0" width="120" height="72" rx="18" fill="rgba(10, 16, 38, 0.9)" stroke="rgba(128, 189, 255, 0.35)" stroke-width="2" />
    <g fill="none" stroke="rgba(123, 209, 255, 0.2)" stroke-width="1.2">
      <path d="M15 12h90" />
      <path d="M15 36h90" />
      <path d="M15 60h90" />
      <path d="M30 0v72" />
      <path d="M54 0v72" />
      <path d="M78 0v72" />
      <path d="M102 0v72" />
    </g>
    <g>
      <circle cx="30" cy="48" r="12" fill="url(#discA)" />
      <circle cx="54" cy="60" r="12" fill="url(#discB)" />
      <circle cx="78" cy="48" r="12" fill="url(#discA)" />
      <circle cx="102" cy="36" r="12" fill="url(#discB)" />
      <circle cx="30" cy="24" r="12" fill="rgba(123, 209, 255, 0.14)" />
      <circle cx="54" cy="24" r="12" fill="rgba(255, 206, 143, 0.16)" />
      <circle cx="78" cy="24" r="12" fill="rgba(123, 209, 255, 0.14)" />
      <circle cx="102" cy="24" r="12" fill="rgba(255, 206, 143, 0.16)" />
      <circle cx="54" cy="36" r="12" fill="url(#discA)" opacity="0.6" />
      <circle cx="78" cy="60" r="12" fill="url(#discB)" opacity="0.8" />
    </g>
  </g>
  <g stroke="rgba(123, 209, 255, 0.45)" stroke-width="2" stroke-linecap="round" opacity="0.7">
    <path d="M22 108c28-8 90-8 116 0" />
  </g>
</svg>
