<svg width="160" height="120" viewBox="0 0 160 120" xmlns="http://www.w3.org/2000/svg">
  <defs>
    <linearGradient id="bg" x1="0" y1="0" x2="1" y2="1">
      <stop offset="0" stop-color="#071932" />
      <stop offset="1" stop-color="#1f0f43" />
    </linearGradient>
    <linearGradient id="panel" x1="0" y1="0" x2="1" y2="1">
      <stop offset="0" stop-color="#061126" />
      <stop offset="1" stop-color="#0b1430" />
    </linearGradient>
    <linearGradient id="runner" x1="0" y1="0" x2="1" y2="1">
      <stop offset="0" stop-color="#7be0ff" />
      <stop offset="1" stop-color="#7b5bff" />
    </linearGradient>
    <linearGradient id="trail" x1="0" y1="0" x2="1" y2="0">
      <stop offset="0" stop-color="#ff9ad5" />
      <stop offset="1" stop-color="#ffb86f" />
    </linearGradient>
  </defs>
  <rect width="160" height="120" rx="24" fill="url(#bg)" />
  <rect x="8" y="8" width="144" height="104" rx="20" fill="url(#panel)" stroke="rgba(132, 197, 255, 0.22)" stroke-width="1.4" />
  <g opacity="0.4" stroke="rgba(123, 209, 255, 0.35)" stroke-width="2" stroke-linecap="round">
    <path d="M20 90c28-12 92-12 120 0" />
    <path d="M20 70c32-10 92-10 120 0" opacity="0.6" />
    <path d="M20 50c36-8 92-8 120 0" opacity="0.4" />
  </g>
  <g opacity="0.35" fill="url(#trail)">
    <path d="M20 94c30-14 80-18 120-8v12c-38-10-82-8-120 0z" />
  </g>
  <g transform="translate(0 -6)">
    <circle cx="68" cy="56" r="9" fill="url(#runner)" />
    <path d="M76 62c16-14 34-22 56-18-12 8-20 18-24 28 10 4 18 8 24 14-22 2-44 0-70-12z" fill="url(#trail)" opacity="0.8" />
    <path d="M54 90c20-26 32-46 32-46 8-4 16-4 24 0l-20 34 20 14c-20 6-40 6-56-2z" fill="url(#runner)" />
    <path d="M60 94c-6 6-4 14 4 18 10-6 12-14-4-18z" fill="#7b5bff" opacity="0.75" />
  </g>
  <g stroke="rgba(123, 209, 255, 0.4)" stroke-linecap="round" stroke-width="2" opacity="0.7">
    <path d="M22 108c30-6 88-6 116 0" />
  </g>
</svg>
