<svg width="160" height="120" viewBox="0 0 160 120" xmlns="http://www.w3.org/2000/svg">
  <defs>
    <linearGradient id="bg" x1="0" y1="0" x2="1" y2="1">
      <stop offset="0" stop-color="#0b1a3b" />
      <stop offset="1" stop-color="#241547" />
    </linearGradient>
    <linearGradient id="panel" x1="0" y1="0" x2="1" y2="1">
      <stop offset="0" stop-color="#061025" />
      <stop offset="1" stop-color="#08132c" />
    </linearGradient>
    <radialGradient id="sky-glow" cx="0.55" cy="0.35" r="0.65">
      <stop offset="0" stop-color="#75d7ff" stop-opacity="0.28" />
      <stop offset="1" stop-color="transparent" />
    </radialGradient>
    <linearGradient id="wing" x1="0" y1="0" x2="1" y2="1">
      <stop offset="0" stop-color="#7be0ff" />
      <stop offset="1" stop-color="#7b5bff" />
    </linearGradient>
    <linearGradient id="body" x1="0" y1="0" x2="1" y2="1">
      <stop offset="0" stop-color="#ffed8f" />
      <stop offset="1" stop-color="#ff9ad5" />
    </linearGradient>
  </defs>
  <rect width="160" height="120" rx="24" fill="url(#bg)" />
  <rect x="8" y="8" width="144" height="104" rx="20" fill="url(#panel)" stroke="rgba(133, 200, 255, 0.2)" stroke-width="1.4" />
  <rect x="8" y="8" width="144" height="104" rx="20" fill="url(#sky-glow)" />
  <g opacity="0.5" fill="none" stroke="rgba(123, 209, 255, 0.4)" stroke-width="1.5" stroke-linecap="round">
    <path d="M26 42c28-12 80-12 108 0" />
    <path d="M26 98c32-10 88-10 108 0" />
    <path d="M30 72c36 12 74 12 100 0" opacity="0.6" />
  </g>
  <g transform="translate(0 -6)">
    <path d="M40 78c26-28 62-46 102-34-18 12-30 26-36 40-22 2-40 1-66-6z" fill="url(#wing)" opacity="0.85" />
    <ellipse cx="76" cy="76" rx="22" ry="16" fill="url(#body)" />
    <path d="M86 68c14-10 32-14 50-6-12 8-24 20-30 32-12-4-20-12-20-26z" fill="url(#wing)" />
    <path d="M58 78c-8 10-6 20 4 26 8-8 6-18-4-26z" fill="#ffb86f" opacity="0.8" />
    <circle cx="84" cy="72" r="4" fill="#091022" />
    <circle cx="84" cy="71" r="2" fill="#fff" opacity="0.7" />
    <path d="M92 78l10-2-8 8z" fill="#ffd06b" />
    <path d="M60 90c18 10 40 12 72 4-22 16-56 16-72-4z" fill="rgba(9, 18, 42, 0.45)" />
  </g>
  <g stroke="rgba(135, 212, 255, 0.4)" stroke-width="3" stroke-linecap="round" opacity="0.75">
    <path d="M24 108c26-8 86-8 112 0" />
  </g>
</svg>
