<svg width="160" height="120" viewBox="0 0 160 120" xmlns="http://www.w3.org/2000/svg">
  <defs>
    <linearGradient id="bg" x1="0" y1="0" x2="1" y2="1">
      <stop offset="0" stop-color="#101f3e" />
      <stop offset="1" stop-color="#241a4f" />
    </linearGradient>
    <linearGradient id="panel" x1="0" y1="0" x2="1" y2="1">
      <stop offset="0" stop-color="#09132b" />
      <stop offset="1" stop-color="#0f1a38" />
    </linearGradient>
    <linearGradient id="cardA" x1="0" y1="0" x2="1" y2="1">
      <stop offset="0" stop-color="#7be0ff" />
      <stop offset="1" stop-color="#7b5bff" />
    </linearGradient>
    <linearGradient id="cardB" x1="0" y1="0" x2="1" y2="1">
      <stop offset="0" stop-color="#ff9ad5" />
      <stop offset="1" stop-color="#ffb86f" />
    </linearGradient>
  </defs>
  <rect width="160" height="120" rx="24" fill="url(#bg)" />
  <rect x="8" y="8" width="144" height="104" rx="20" fill="url(#panel)" stroke="rgba(132, 197, 255, 0.22)" stroke-width="1.4" />
  <g opacity="0.3" stroke="rgba(123, 209, 255, 0.28)" stroke-width="2" stroke-linecap="round">
    <path d="M28 34h104" />
    <path d="M28 58h104" />
    <path d="M28 82h104" />
  </g>
  <g transform="rotate(-10 64 64)">
    <rect x="44" y="32" width="46" height="64" rx="12" fill="rgba(12, 18, 38, 0.9)" stroke="rgba(123, 209, 255, 0.25)" stroke-width="1.6" />
    <rect x="50" y="40" width="34" height="48" rx="10" fill="url(#cardA)" />
    <path d="M60 68c6-8 20-8 26 0-6 8-20 8-26 0z" fill="rgba(12, 18, 38, 0.25)" />
    <circle cx="67" cy="60" r="6" fill="#0a132b" stroke="rgba(255, 255, 255, 0.5)" stroke-width="1.2" />
    <circle cx="80" cy="60" r="4" fill="#0a132b" stroke="rgba(255, 255, 255, 0.4)" stroke-width="1" />
  </g>
  <g transform="rotate(12 104 64)">
    <rect x="86" y="24" width="46" height="64" rx="12" fill="rgba(12, 18, 38, 0.9)" stroke="rgba(255, 154, 213, 0.3)" stroke-width="1.6" />
    <rect x="92" y="32" width="34" height="48" rx="10" fill="url(#cardB)" />
    <path d="M102 60c8-6 16-6 24 0-8 6-16 6-24 0z" fill="rgba(12, 18, 38, 0.25)" />
    <path d="M106 52l6 6-6 6" fill="none" stroke="#0a132b" stroke-width="2" stroke-linecap="round" stroke-linejoin="round" />
  </g>
  <g stroke="rgba(123, 209, 255, 0.45)" stroke-linecap="round" stroke-width="2" opacity="0.75">
    <path d="M24 108c30-6 90-6 112 0" />
  </g>
</svg>
