<svg width="160" height="120" viewBox="0 0 160 120" xmlns="http://www.w3.org/2000/svg">
  <defs>
    <linearGradient id="a" x1="0" y1="0" x2="1" y2="1">
      <stop offset="0" stop-color="#151c55" />
      <stop offset="1" stop-color="#2d145a" />
    </linearGradient>
    <linearGradient id="b" x1="0" y1="0" x2="1" y2="1">
      <stop offset="0" stop-color="#88dcff" />
      <stop offset="1" stop-color="#c98cff" />
    </linearGradient>
    <linearGradient id="c" x1="0" y1="0" x2="0" y2="1">
      <stop offset="0" stop-color="#1a2b73" />
      <stop offset="1" stop-color="#080e28" />
    </linearGradient>
    <linearGradient id="d" x1="0" y1="0" x2="1" y2="1">
      <stop offset="0" stop-color="#7bffdf" />
      <stop offset="1" stop-color="#5f9fff" />
    </linearGradient>
    <linearGradient id="e" x1="0" y1="0" x2="1" y2="1">
      <stop offset="0" stop-color="#ffefb5" />
      <stop offset="1" stop-color="#ffa864" />
    </linearGradient>
    <linearGradient id="f" x1="0" y1="0" x2="1" y2="1">
      <stop offset="0" stop-color="#7d8eff" />
      <stop offset="1" stop-color="#66d2ff" />
    </linearGradient>
  </defs>
  <rect width="160" height="120" rx="20" fill="url(#a)" />
  <rect x="6" y="6" width="148" height="108" rx="16" fill="#080f28" />
  <rect x="6" y="6" width="148" height="108" rx="16" fill="url(#c)" />
  <rect x="6" y="6" width="148" height="108" rx="16" fill="none" stroke="url(#b)" stroke-width="1.4" />
  <g transform="translate(32 26)">
    <rect width="96" height="68" rx="14" fill="#0f1639" />
    <rect x="10" y="12" width="28" height="40" rx="8" fill="#101641" />
    <rect x="12" y="14" width="24" height="36" rx="7" fill="#1a255f" />
    <path d="M20 24l8 8-8 8-8-8z" fill="url(#d)" />
    <rect x="40" y="8" width="32" height="52" rx="10" fill="#101641" transform="rotate(-12 56 34)" />
    <rect x="42" y="10" width="28" height="48" rx="9" fill="#1d275f" transform="rotate(-12 56 34)" />
    <path d="M52 22l18 18-18 18" fill="none" stroke="url(#e)" stroke-width="4" stroke-linecap="round" stroke-linejoin="round" transform="rotate(-12 61 40)" />
    <rect x="72" y="14" width="18" height="26" rx="6" fill="#101641" />
    <rect x="74" y="16" width="14" height="22" rx="5" fill="#1d285f" />
    <path d="M81 22l5 5-5 5-5-5z" fill="url(#f)" />
    <g fill="#7bd4ff" opacity=".45">
      <circle cx="14" cy="10" r="3" />
      <circle cx="82" cy="10" r="3" />
      <circle cx="14" cy="56" r="3" />
      <circle cx="82" cy="56" r="3" />
    </g>
  </g>
  <path d="M34 94c24-10 68-10 92 0" stroke="#7bd4ff" stroke-width="3" stroke-linecap="round" opacity=".55" />
  <path d="M38 100c20-8 64-8 84 0" stroke="#ffb465" stroke-width="2" stroke-linecap="round" opacity=".5" />
</svg>
