<svg width="160" height="120" viewBox="0 0 160 120" xmlns="http://www.w3.org/2000/svg">
  <defs>
    <linearGradient id="a" x1="0" y1="0" x2="1" y2="1">
      <stop offset="0" stop-color="#161d57" />
      <stop offset="1" stop-color="#2f165d" />
    </linearGradient>
    <linearGradient id="b" x1="0" y1="0" x2="1" y2="1">
      <stop offset="0" stop-color="#88dcff" />
      <stop offset="1" stop-color="#c98cff" />
    </linearGradient>
    <linearGradient id="c" x1="0" y1="0" x2="0" y2="1">
      <stop offset="0" stop-color="#1a2b73" />
      <stop offset="1" stop-color="#080e27" />
    </linearGradient>
    <linearGradient id="d" x1="0" y1="0" x2="1" y2="1">
      <stop offset="0" stop-color="#7bffdf" />
      <stop offset="1" stop-color="#5f9fff" />
    </linearGradient>
    <linearGradient id="e" x1="0" y1="0" x2="1" y2="1">
      <stop offset="0" stop-color="#ffefb5" />
      <stop offset="1" stop-color="#ffa864" />
    </linearGradient>
    <linearGradient id="f" x1="0" y1="0" x2="1" y2="1">
      <stop offset="0" stop-color="#7d8eff" />
      <stop offset="1" stop-color="#66d2ff" />
    </linearGradient>
  </defs>
  <rect width="160" height="120" rx="20" fill="url(#a)" />
  <rect x="6" y="6" width="148" height="108" rx="16" fill="#080f28" />
  <rect x="6" y="6" width="148" height="108" rx="16" fill="url(#c)" />
  <rect x="6" y="6" width="148" height="108" rx="16" fill="none" stroke="url(#b)" stroke-width="1.4" />
  <g transform="translate(32 22)">
    <rect width="96" height="52" rx="12" fill="#10163d" />
    <rect x="6" y="6" width="84" height="36" rx="10" fill="#19265f" />
    <rect x="12" y="12" width="56" height="24" rx="8" fill="#0f1331" />
    <rect x="14" y="14" width="52" height="20" rx="7" fill="#1a265f" />
    <path d="M18 24h44" stroke="#25338a" stroke-width="2" stroke-linecap="round" opacity=".55" />
    <g transform="translate(70 10)">
      <rect width="18" height="22" rx="6" fill="#0d132f" />
      <rect x="3" y="3" width="12" height="16" rx="4" fill="url(#d)" />
      <path d="M12 4l-4 8 4 8" stroke="#fff" stroke-width="2" stroke-linecap="round" opacity=".55" />
    </g>
    <g transform="translate(18 40)" fill="#7bd4ff" opacity=".65">
      <circle cx="0" cy="0" r="3" />
      <circle cx="12" cy="0" r="3" />
      <circle cx="24" cy="0" r="3" />
      <circle cx="36" cy="0" r="3" />
    </g>
  </g>
  <g transform="translate(36 74)">
    <rect width="88" height="26" rx="12" fill="#0d122f" />
    <rect x="4" y="6" width="80" height="12" rx="6" fill="#1b265d" />
    <rect x="22" y="10" width="44" height="6" rx="3" fill="url(#f)" />
  </g>
  <g transform="translate(108 62)">
    <circle cx="16" cy="16" r="16" fill="#121741" />
    <circle cx="16" cy="16" r="12" fill="url(#e)" />
    <path d="M16 8l4 4h-3v4h3l-4 4" stroke="#7c3e00" stroke-width="2.5" stroke-linecap="round" stroke-linejoin="round" />
  </g>
  <path d="M36 96c28-12 68-12 96 0" stroke="#7bd4ff" stroke-width="3" stroke-linecap="round" opacity=".5" />
  <path d="M36 100c24-10 68-10 96 0" stroke="#ffb465" stroke-width="2" stroke-linecap="round" opacity=".5" />
</svg>
