<svg width="160" height="120" viewBox="0 0 160 120" xmlns="http://www.w3.org/2000/svg">
  <defs>
    <linearGradient id="bg" x1="0" y1="0" x2="1" y2="1">
      <stop offset="0" stop-color="#0d1f3e" />
      <stop offset="1" stop-color="#2b1954" />
    </linearGradient>
    <linearGradient id="panel" x1="0" y1="0" x2="1" y2="1">
      <stop offset="0" stop-color="#09132b" />
      <stop offset="1" stop-color="#0d1934" />
    </linearGradient>
    <linearGradient id="widget" x1="0" y1="0" x2="1" y2="1">
      <stop offset="0" stop-color="#111e44" />
      <stop offset="1" stop-color="#0c152f" />
    </linearGradient>
    <linearGradient id="accentA" x1="0" y1="0" x2="1" y2="1">
      <stop offset="0" stop-color="#7be0ff" />
      <stop offset="1" stop-color="#3a9dff" />
    </linearGradient>
    <linearGradient id="accentB" x1="0" y1="0" x2="1" y2="1">
      <stop offset="0" stop-color="#ffd56f" />
      <stop offset="1" stop-color="#ff9f6f" />
    </linearGradient>
  </defs>
  <rect width="160" height="120" rx="24" fill="url(#bg)" />
  <rect x="8" y="8" width="144" height="104" rx="20" fill="url(#panel)" stroke="rgba(132, 197, 255, 0.22)" stroke-width="1.4" />
  <g transform="translate(20 24)">
    <rect x="0" y="0" width="120" height="72" rx="18" fill="url(#widget)" stroke="rgba(123, 209, 255, 0.22)" stroke-width="1.4" />
    <rect x="12" y="12" width="32" height="20" rx="8" fill="rgba(123, 209, 255, 0.12)" stroke="rgba(123, 209, 255, 0.24)" stroke-width="1" />
    <g fill="none" stroke="url(#accentA)" stroke-width="2" stroke-linecap="round">
      <path d="M20 22c4-4 8-6 12-4 4 2 10 2 14-2" />
    </g>
    <g fill="url(#accentA)" opacity="0.85">
      <rect x="54" y="30" width="10" height="24" rx="3" />
      <rect x="68" y="20" width="10" height="34" rx="3" />
      <rect x="82" y="26" width="10" height="28" rx="3" />
      <rect x="96" y="16" width="10" height="38" rx="3" />
    </g>
    <g fill="url(#accentB)" opacity="0.9">
      <circle cx="30" cy="48" r="10" />
      <circle cx="44" cy="54" r="8" />
      <circle cx="32" cy="60" r="6" opacity="0.8" />
    </g>
    <g fill="#0f1834" stroke="rgba(255, 223, 143, 0.6)" stroke-width="1.2" opacity="0.85">
      <path d="M26 48h8l-4 6z" />
      <circle cx="44" cy="54" r="3" />
    </g>
  </g>
  <g stroke="rgba(123, 209, 255, 0.45)" stroke-width="2" stroke-linecap="round" opacity="0.7">
    <path d="M24 108c30-6 90-6 112 0" />
  </g>
</svg>
