<svg width="160" height="120" viewBox="0 0 160 120" xmlns="http://www.w3.org/2000/svg">
  <defs>
    <linearGradient id="a" x1="0" y1="0" x2="1" y2="1">
      <stop offset="0" stop-color="#141b51" />
      <stop offset="1" stop-color="#2c145b" />
    </linearGradient>
    <linearGradient id="b" x1="0" y1="0" x2="1" y2="1">
      <stop offset="0" stop-color="#88dcff" />
      <stop offset="1" stop-color="#c98cff" />
    </linearGradient>
    <linearGradient id="c" x1="0" y1="0" x2="0" y2="1">
      <stop offset="0" stop-color="#1a2b73" />
      <stop offset="1" stop-color="#080e28" />
    </linearGradient>
    <linearGradient id="d" x1="0" y1="0" x2="1" y2="1">
      <stop offset="0" stop-color="#7bffdf" />
      <stop offset="1" stop-color="#5f9fff" />
    </linearGradient>
    <linearGradient id="e" x1="0" y1="0" x2="1" y2="1">
      <stop offset="0" stop-color="#ffefb5" />
      <stop offset="1" stop-color="#ffa864" />
    </linearGradient>
  </defs>
  <rect width="160" height="120" rx="20" fill="url(#a)" />
  <rect x="6" y="6" width="148" height="108" rx="16" fill="#080f28" />
  <rect x="6" y="6" width="148" height="108" rx="16" fill="url(#c)" />
  <rect x="6" y="6" width="148" height="108" rx="16" fill="none" stroke="url(#b)" stroke-width="1.4" />
  <g transform="translate(32 26)">
    <rect width="96" height="68" rx="14" fill="#0f163a" />
    <rect x="8" y="12" width="80" height="44" rx="10" fill="#19265f" />
    <g transform="translate(12 16)" stroke="#24348c" stroke-width="2" opacity=".6">
      <path d="M0 0h68" />
      <path d="M0 18h68" />
      <path d="M0 36h68" />
      <path d="M0 0v54" />
      <path d="M17 0v54" />
      <path d="M34 0v54" />
      <path d="M51 0v54" />
      <path d="M68 0v54" />
    </g>
    <g transform="translate(12 16)">
      <rect width="17" height="18" rx="5" fill="#121742" />
      <rect x="17" width="17" height="18" rx="5" fill="#121742" />
      <rect x="34" width="17" height="18" rx="5" fill="#121742" />
      <rect x="51" width="17" height="18" rx="5" fill="#121742" />
      <rect x="0" y="18" width="17" height="18" rx="5" fill="#121742" />
      <rect x="17" y="18" width="17" height="18" rx="5" fill="#121742" />
      <rect x="34" y="18" width="17" height="18" rx="5" fill="#121742" />
      <rect x="51" y="18" width="17" height="18" rx="5" fill="#121742" />
      <rect x="0" y="36" width="17" height="18" rx="5" fill="#121742" />
      <rect x="17" y="36" width="17" height="18" rx="5" fill="#121742" />
      <rect x="34" y="36" width="17" height="18" rx="5" fill="#121742" />
      <rect x="51" y="36" width="17" height="18" rx="5" fill="#121742" />
      <rect x="17" width="17" height="18" rx="5" fill="url(#d)" opacity=".9" />
      <rect x="34" y="18" width="17" height="18" rx="5" fill="url(#e)" opacity=".9" />
      <rect x="51" y="36" width="17" height="18" rx="5" fill="#1b285f" opacity=".6" />
    </g>
    <g transform="translate(18 20)" fill="#fff" font-family="'Space Grotesk', 'Poppins', sans-serif" font-weight="700" font-size="10">
      <text x="8.5" y="12">P</text>
      <text x="25.5" y="12">E</text>
      <text x="42.5" y="30">T</text>
      <text x="59.5" y="48">A</text>
      <text x="76.5" y="12" fill="#7bd4ff">K</text>
    </g>
    <path d="M12 54h68" stroke="#7bd4ff" stroke-width="2.5" stroke-linecap="round" opacity=".5" />
  </g>
  <path d="M34 96c24-10 68-10 92 0" stroke="#7bd4ff" stroke-width="3" stroke-linecap="round" opacity=".55" />
  <path d="M34 100c28-12 92-12 120 0" stroke="#ffb465" stroke-width="2" stroke-linecap="round" opacity=".45" />
</svg>
