<svg width="160" height="120" viewBox="0 0 160 120" xmlns="http://www.w3.org/2000/svg">
  <defs>
    <linearGradient id="bg" x1="0" y1="0" x2="1" y2="1">
      <stop offset="0" stop-color="#081a38" />
      <stop offset="1" stop-color="#241a4c" />
    </linearGradient>
    <linearGradient id="panel" x1="0" y1="0" x2="1" y2="1">
      <stop offset="0" stop-color="#061028" />
      <stop offset="1" stop-color="#0b1732" />
    </linearGradient>
    <linearGradient id="laneA" x1="0" y1="0" x2="1" y2="0">
      <stop offset="0" stop-color="#7be0ff" />
      <stop offset="1" stop-color="#3a9dff" />
    </linearGradient>
    <linearGradient id="laneB" x1="0" y1="0" x2="1" y2="0">
      <stop offset="0" stop-color="#ff9ad5" />
      <stop offset="1" stop-color="#ff7a6f" />
    </linearGradient>
  </defs>
  <rect width="160" height="120" rx="24" fill="url(#bg)" />
  <rect x="8" y="8" width="144" height="104" rx="20" fill="url(#panel)" stroke="rgba(132, 197, 255, 0.22)" stroke-width="1.4" />
  <g opacity="0.3" stroke="rgba(123, 209, 255, 0.3)" stroke-width="1.4" stroke-linecap="round">
    <path d="M32 32h96" />
    <path d="M32 88h96" />
  </g>
  <path d="M36 40c24-12 52-12 76 0s52 12 76 0" fill="none" stroke="url(#laneA)" stroke-width="6" stroke-linecap="round" stroke-linejoin="round" opacity="0.55" />
  <path d="M36 100c24-12 52-12 76 0s52 12 76 0" fill="none" stroke="url(#laneB)" stroke-width="6" stroke-linecap="round" stroke-linejoin="round" opacity="0.55" />
  <g transform="translate(0 -4)">
    <rect x="48" y="44" width="12" height="52" rx="6" fill="rgba(123, 209, 255, 0.2)" stroke="rgba(123, 209, 255, 0.3)" stroke-width="1" />
    <rect x="100" y="44" width="12" height="52" rx="6" fill="rgba(255, 154, 213, 0.2)" stroke="rgba(255, 154, 213, 0.32)" stroke-width="1" />
    <path d="M54 48c14 12 30 18 48 18" fill="none" stroke="url(#laneA)" stroke-width="4" stroke-linecap="round" />
    <path d="M106 82c-14-12-30-18-48-18" fill="none" stroke="url(#laneB)" stroke-width="4" stroke-linecap="round" />
    <circle cx="82" cy="66" r="8" fill="#0b152f" stroke="rgba(123, 209, 255, 0.5)" stroke-width="2" />
    <circle cx="82" cy="66" r="4" fill="url(#laneA)" />
  </g>
  <g stroke="rgba(123, 209, 255, 0.45)" stroke-linecap="round" stroke-width="2" opacity="0.7">
    <path d="M24 108c30-6 90-6 112 0" />
  </g>
</svg>
