<svg width="160" height="120" viewBox="0 0 160 120" xmlns="http://www.w3.org/2000/svg">
  <defs>
    <linearGradient id="bg" x1="0" y1="0" x2="1" y2="1">
      <stop offset="0" stop-color="#081b38" />
      <stop offset="1" stop-color="#271a4f" />
    </linearGradient>
    <linearGradient id="panel" x1="0" y1="0" x2="1" y2="1">
      <stop offset="0" stop-color="#07112a" />
      <stop offset="1" stop-color="#0c1732" />
    </linearGradient>
    <linearGradient id="beam" x1="0" y1="0" x2="1" y2="0">
      <stop offset="0" stop-color="#7be0ff" />
      <stop offset="1" stop-color="#ff9ad5" />
    </linearGradient>
    <linearGradient id="crystal" x1="0" y1="0" x2="1" y2="1">
      <stop offset="0" stop-color="#ffd56f" />
      <stop offset="1" stop-color="#ff9f6f" />
    </linearGradient>
  </defs>
  <rect width="160" height="120" rx="24" fill="url(#bg)" />
  <rect x="8" y="8" width="144" height="104" rx="20" fill="url(#panel)" stroke="rgba(133, 200, 255, 0.22)" stroke-width="1.4" />
  <g opacity="0.25" stroke="rgba(123, 209, 255, 0.3)" stroke-width="1.6" stroke-linecap="round">
    <path d="M34 32h92" />
    <path d="M34 56h92" />
    <path d="M34 80h92" />
  </g>
  <g fill="none" stroke="url(#beam)" stroke-width="4" stroke-linecap="round" stroke-linejoin="round">
    <path d="M36 96l28-28 18 12 28-48 24 16" opacity="0.9" />
    <path d="M36 40l22 14 16-18 18 12 32-20" opacity="0.5" />
  </g>
  <g fill="url(#crystal)" stroke="rgba(123, 209, 255, 0.4)" stroke-width="1.2" opacity="0.9">
    <path d="M58 66l6-10 10 6-6 10z" />
    <path d="M112 36l6-10 10 6-6 10z" />
    <path d="M108 76l6-10 10 6-6 10z" />
  </g>
  <circle cx="64" cy="92" r="6" fill="#0b152f" stroke="rgba(123, 209, 255, 0.5)" stroke-width="2" />
  <circle cx="64" cy="92" r="3" fill="url(#beam)" />
  <g stroke="rgba(123, 209, 255, 0.45)" stroke-linecap="round" stroke-width="2" opacity="0.7">
    <path d="M24 108c30-6 90-6 112 0" />
  </g>
</svg>
