<svg width="160" height="120" viewBox="0 0 160 120" xmlns="http://www.w3.org/2000/svg">
  <defs>
    <linearGradient id="bg" x1="0" y1="0" x2="1" y2="1">
      <stop offset="0" stop-color="#0d1a38" />
      <stop offset="1" stop-color="#24184e" />
    </linearGradient>
    <linearGradient id="panel" x1="0" y1="0" x2="1" y2="1">
      <stop offset="0" stop-color="#081329" />
      <stop offset="1" stop-color="#0d1834" />
    </linearGradient>
    <linearGradient id="player" x1="0" y1="0" x2="1" y2="1">
      <stop offset="0" stop-color="#7be0ff" />
      <stop offset="1" stop-color="#7b5bff" />
    </linearGradient>
    <linearGradient id="trail" x1="0" y1="0" x2="1" y2="0">
      <stop offset="0" stop-color="#ff9ad5" />
      <stop offset="1" stop-color="#ffd56f" />
    </linearGradient>
  </defs>
  <rect width="160" height="120" rx="24" fill="url(#bg)" />
  <rect x="8" y="8" width="144" height="104" rx="20" fill="url(#panel)" stroke="rgba(128, 196, 255, 0.22)" stroke-width="1.4" />
  <g opacity="0.3" stroke="rgba(123, 209, 255, 0.22)" stroke-width="2" stroke-linecap="round">
    <path d="M36 32h88" />
    <path d="M36 56h88" />
    <path d="M36 80h88" />
    <path d="M48 20v80" />
    <path d="M72 20v80" />
    <path d="M96 20v80" />
    <path d="M120 20v80" />
  </g>
  <path d="M40 96c18-18 44-30 76-34l-18-10 46-10c-8 28-30 58-104 54z" fill="url(#trail)" opacity="0.7" />
  <rect x="62" y="54" width="24" height="24" rx="8" fill="url(#player)" />
  <g fill="none" stroke="rgba(123, 209, 255, 0.5)" stroke-width="2" stroke-linecap="round">
    <path d="M74 36v12" />
    <path d="M50 66h12" />
    <path d="M98 66h12" />
    <path d="M74 90v12" />
  </g>
  <g fill="#ffd56f" opacity="0.85">
    <path d="M104 46l3 6 6 1-4 4 1 6-6-3-6 3 1-6-4-4 6-1z" />
  </g>
  <g stroke="rgba(123, 209, 255, 0.4)" stroke-linecap="round" stroke-width="2" opacity="0.75">
    <path d="M22 108c30-6 90-6 116 0" />
  </g>
</svg>
