<svg width="160" height="120" viewBox="0 0 160 120" xmlns="http://www.w3.org/2000/svg">
  <defs>
    <linearGradient id="a" x1="0" y1="0" x2="1" y2="1">
      <stop offset="0" stop-color="#141b51" />
      <stop offset="1" stop-color="#2c145b" />
    </linearGradient>
    <linearGradient id="b" x1="0" y1="0" x2="1" y2="1">
      <stop offset="0" stop-color="#86ddff" />
      <stop offset="1" stop-color="#c88cff" />
    </linearGradient>
    <linearGradient id="c" x1="0" y1="0" x2="0" y2="1">
      <stop offset="0" stop-color="#1a2b73" />
      <stop offset="1" stop-color="#080e27" />
    </linearGradient>
    <linearGradient id="d" x1="0" y1="0" x2="1" y2="1">
      <stop offset="0" stop-color="#7bffdf" />
      <stop offset="1" stop-color="#5f9fff" />
    </linearGradient>
    <linearGradient id="e" x1="0" y1="0" x2="1" y2="1">
      <stop offset="0" stop-color="#ffefb5" />
      <stop offset="1" stop-color="#ffa764" />
    </linearGradient>
  </defs>
  <rect width="160" height="120" rx="20" fill="url(#a)" />
  <rect x="6" y="6" width="148" height="108" rx="16" fill="#080f28" />
  <rect x="6" y="6" width="148" height="108" rx="16" fill="url(#c)" />
  <rect x="6" y="6" width="148" height="108" rx="16" fill="none" stroke="url(#b)" stroke-width="1.4" />
  <g transform="translate(30 24)">
    <rect width="100" height="72" rx="14" fill="#0f163b" />
    <rect x="8" y="8" width="84" height="56" rx="12" fill="#16225a" />
    <rect x="26" y="26" width="48" height="20" rx="8" fill="#0d1332" />
    <rect x="28" y="28" width="44" height="16" rx="6" fill="#1a255f" />
    <path d="M20 14h60" stroke="#25348b" stroke-width="2" stroke-linecap="round" opacity=".5" />
    <path d="M20 62h60" stroke="#25348b" stroke-width="2" stroke-linecap="round" opacity=".5" />
    <path d="M18 24l12 12-12 12" stroke="#7bd4ff" stroke-width="4" stroke-linecap="round" stroke-linejoin="round" />
    <path d="M82 24l-12 12 12 12" stroke="#ffb365" stroke-width="4" stroke-linecap="round" stroke-linejoin="round" />
    <circle cx="50" cy="36" r="14" fill="#10173f" />
    <circle cx="50" cy="36" r="10" fill="#0f112d" />
    <circle cx="50" cy="36" r="7" fill="url(#d)" />
    <circle cx="50" cy="36" r="3" fill="#fff" opacity=".6" />
    <g fill="#ffb76a" opacity=".65">
      <circle cx="22" cy="16" r="3" />
      <circle cx="78" cy="16" r="3" />
      <circle cx="22" cy="56" r="3" />
      <circle cx="78" cy="56" r="3" />
    </g>
  </g>
  <g transform="translate(54 84)">
    <rect width="52" height="18" rx="9" fill="#0d1231" />
    <rect x="4" y="4" width="44" height="10" rx="5" fill="#1b265d" />
    <rect x="18" y="6" width="16" height="6" rx="3" fill="url(#e)" />
  </g>
  <path d="M34 96c24-10 68-10 92 0" stroke="#7bd4ff" stroke-width="3" stroke-linecap="round" opacity=".5" />
</svg>
